<svg width="40" height="50" viewBox="0 0 40 50" fill="none" xmlns="http://www.w3.org/2000/svg">
<path d="M35 10V5H40V0H5C2.25 0 0 2.25 0 5V45C0 47.75 2.25 50 5 50H40V45H29.925C31.4962 43.8482 32.7743 42.3429 33.6559 40.6057C34.5375 38.8684 34.998 36.9481 35 35V22.5H10V35C10 39.1 12.025 42.725 15.075 45H5V5H10V10C10 11.375 11.125 12.5 12.5 12.5H32.5C33.875 12.5 35 11.375 35 10ZM15 35V27.5H30V35C30 39.125 26.625 42.5 22.5 42.5C18.375 42.5 15 39.125 15 35Z" fill="#FFAF37"/>
<path d="M22.5 20C23.8807 20 25 18.8807 25 17.5C25 16.1193 23.8807 15 22.5 15C21.1193 15 20 16.1193 20 17.5C20 18.8807 21.1193 20 22.5 20Z" fill="#FFAF37"/>
</svg>
