<svg width="40" height="40" viewBox="0 0 40 40" fill="none" xmlns="http://www.w3.org/2000/svg">
<path d="M20 3.33333C15.5797 3.33333 11.3405 5.08928 8.21489 8.21489C5.08928 11.3405 3.33333 15.5797 3.33333 20V23.3333H6.66667C7.55072 23.3333 8.39857 23.6845 9.02369 24.3096C9.64881 24.9348 10 25.7826 10 26.6667V36.6667C10 37.5507 9.64881 38.3986 9.02369 39.0237C8.39857 39.6488 7.55072 40 6.66667 40H3.33333C2.44928 40 1.60143 39.6488 0.976311 39.0237C0.351189 38.3986 0 37.5507 0 36.6667V20C-3.9137e-08 17.3736 0.517315 14.7728 1.52241 12.3463C2.5275 9.91982 4.00069 7.71504 5.85786 5.85786C7.71504 4.00069 9.91982 2.5275 12.3463 1.52241C14.7728 0.517315 17.3736 0 20 0C22.6264 0 25.2272 0.517315 27.6537 1.52241C30.0802 2.5275 32.285 4.00069 34.1421 5.85786C35.9993 7.71504 37.4725 9.91982 38.4776 12.3463C39.4827 14.7728 40 17.3736 40 20V36.6667C40 37.5507 39.6488 38.3986 39.0237 39.0237C38.3986 39.6488 37.5507 40 36.6667 40H33.3333C32.4493 40 31.6014 39.6488 30.9763 39.0237C30.3512 38.3986 30 37.5507 30 36.6667V26.6667C30 25.7826 30.3512 24.9348 30.9763 24.3096C31.6014 23.6845 32.4493 23.3333 33.3333 23.3333H36.6667V20C36.6667 15.5797 34.9107 11.3405 31.7851 8.21489C28.6595 5.08928 24.4203 3.33333 20 3.33333Z" fill="#FFAF37"/>
</svg>
