<svg width="31" height="30" viewBox="0 0 31 30" fill="none" xmlns="http://www.w3.org/2000/svg">
<path d="M15.4307 15C17.4198 15 19.3274 14.2098 20.734 12.8033C22.1405 11.3968 22.9307 9.48912 22.9307 7.5C22.9307 5.51088 22.1405 3.60322 20.734 2.1967C19.3274 0.790177 17.4198 0 15.4307 0C13.4415 0 11.5339 0.790177 10.1274 2.1967C8.72084 3.60322 7.93066 5.51088 7.93066 7.5C7.93066 9.48912 8.72084 11.3968 10.1274 12.8033C11.5339 14.2098 13.4415 15 15.4307 15ZM20.4307 7.5C20.4307 8.82608 19.9039 10.0979 18.9662 11.0355C18.0285 11.9732 16.7567 12.5 15.4307 12.5C14.1046 12.5 12.8328 11.9732 11.8951 11.0355C10.9574 10.0979 10.4307 8.82608 10.4307 7.5C10.4307 6.17392 10.9574 4.90215 11.8951 3.96447C12.8328 3.02678 14.1046 2.5 15.4307 2.5C16.7567 2.5 18.0285 3.02678 18.9662 3.96447C19.9039 4.90215 20.4307 6.17392 20.4307 7.5ZM30.4307 27.5C30.4307 30 27.9307 30 27.9307 30H2.93066C2.93066 30 0.430664 30 0.430664 27.5C0.430664 25 2.93066 17.5 15.4307 17.5C27.9307 17.5 30.4307 25 30.4307 27.5ZM27.9307 27.49C27.9282 26.875 27.5457 25.025 25.8507 23.33C24.2207 21.7 21.1532 20 15.4307 20C9.70566 20 6.64066 21.7 5.01066 23.33C3.31566 25.025 2.93566 26.875 2.93066 27.49H27.9307Z" fill="#FFAF37"/>
</svg>
