<svg width="60" height="59" viewBox="0 0 60 59" fill="none" xmlns="http://www.w3.org/2000/svg">
<path d="M12.6096 21.6209V17.8898V15.5183C12.6096 15.4682 12.5898 15.4238 12.5633 15.4238H9.51437C9.48886 15.4238 9.46619 15.4682 9.46619 15.5183V21.6209C9.46619 21.6474 9.47375 21.6691 9.47752 21.6842L9.4813 21.6871H9.48508C9.48886 21.7022 9.50209 21.7126 9.51437 21.7126H12.5633C12.5888 21.7126 12.6096 21.6729 12.6096 21.6209Z" fill="#FFAF37"/>
<path d="M19.6712 19.3076H2.26941C2.12579 19.3076 2.00769 19.3275 2.00769 19.3539V22.2876C2.00769 22.3131 2.12579 22.332 2.26941 22.332H19.6712C19.7486 22.332 19.811 22.3282 19.8516 22.3207L19.8592 22.3169H19.8648C19.9074 22.3112 19.9348 22.298 19.9348 22.2866V20.4197V19.353C19.9357 19.3284 19.8157 19.3076 19.6712 19.3076Z" fill="#FFAF37"/>
<path d="M21.7527 20.8174H0.325019C0.147392 20.8174 0 20.8429 0 20.876V24.4852C0 24.5192 0.147392 24.5428 0.325019 24.5428H21.7527C21.8471 24.5428 21.9227 24.5381 21.9737 24.5286L21.9813 24.5268C21.9851 24.5268 21.9851 24.523 21.9889 24.523C22.0399 24.5164 22.0767 24.505 22.0767 24.4861V22.1912V20.8769C22.0777 20.8429 21.9303 20.8174 21.7527 20.8174Z" fill="#FFAF37"/>
<path d="M20.7672 0H1.30199C1.14231 0 1.0072 0.116213 1.0072 0.248488V16.3879C1.0072 16.5249 1.14231 16.6393 1.30199 16.6393H20.7672C20.8408 16.6422 20.913 16.6184 20.9704 16.5722L20.9779 16.5646L20.9836 16.5533C21.0089 16.5337 21.0293 16.5085 21.0431 16.4796C21.0569 16.4507 21.0637 16.419 21.063 16.387V6.1234V0.247543C21.063 0.116213 20.9297 0 20.7672 0Z" fill="#FFAF37"/>
<path d="M20.2456 0.916992H2.38378C2.23638 0.916992 2.1145 1.02187 2.1145 1.14564V15.951C2.1145 16.0767 2.23638 16.1815 2.38378 16.1815H20.2456C20.325 16.1815 20.3874 16.1598 20.4318 16.123C20.4318 16.123 20.4318 16.1192 20.4356 16.1135C20.4393 16.1135 20.4393 16.1088 20.4431 16.1041C20.4665 16.0861 20.4853 16.0629 20.4981 16.0363C20.5109 16.0097 20.5173 15.9805 20.5168 15.951V6.53774V1.14564C20.5168 1.02187 20.393 0.916992 20.2456 0.916992Z" fill="#FFAF37"/>
<path d="M18.974 1.47461H2.96398C2.83076 1.47461 2.72021 1.56909 2.72021 1.67964V14.9544C2.72021 15.0668 2.83076 15.1613 2.96398 15.1613H18.974C19.0341 15.1637 19.093 15.1446 19.1403 15.1075C19.1403 15.1075 19.1403 15.1027 19.1441 15.099C19.1478 15.099 19.1478 15.0952 19.1516 15.0914C19.172 15.0749 19.1884 15.054 19.1995 15.0303C19.2107 15.0066 19.2163 14.9806 19.2159 14.9544V6.51429V1.67964C19.2159 1.56909 19.1053 1.47461 18.974 1.47461Z" fill="#FFAF37"/>
<path d="M11.2754 10.3484C13.9512 12.3959 16.5655 13.7867 19.2875 14.6294V1.68159C19.2875 1.5701 19.177 1.47656 19.0438 1.47656H4.35083C5.8616 5.10657 8.45892 8.19803 11.2754 10.3484Z" fill="#FFAF37"/>
<path d="M11.2934 12.5193C8.06404 10.2753 4.83086 7.16684 2.79004 3.3252V14.955C2.79004 15.0675 2.90058 15.1619 3.0338 15.1619H16.1026C14.4088 14.4572 12.7964 13.5712 11.2934 12.5193Z" fill="#FFAF37"/>
<path d="M50.5291 21.6209V17.8898V15.5183C50.5291 15.4682 50.5074 15.4238 50.4809 15.4238H47.432C47.4102 15.4238 47.3876 15.4682 47.3876 15.5183V21.6209C47.3876 21.6474 47.3914 21.6691 47.398 21.6842L47.3999 21.6871H47.4036C47.4103 21.7022 47.4225 21.7126 47.432 21.7126H50.4809C50.5074 21.7126 50.5291 21.6729 50.5291 21.6209Z" fill="#FFAF37"/>
<path d="M57.5869 19.3076H40.1852C40.0425 19.3076 39.9235 19.3275 39.9235 19.3539V22.2876C39.9235 22.3131 40.0425 22.332 40.1852 22.332H57.5869C57.6644 22.332 57.7268 22.3282 57.7683 22.3207L57.7749 22.3169H57.7825C57.8231 22.3112 57.8524 22.298 57.8524 22.2866V20.4197V19.353C57.8524 19.3284 57.7334 19.3076 57.5869 19.3076Z" fill="#FFAF37"/>
<path d="M59.675 20.8174H38.2473C38.0697 20.8174 37.9242 20.8429 37.9242 20.876V24.4852C37.9242 24.5192 38.0697 24.5428 38.2473 24.5428H59.675C59.7713 24.5428 59.845 24.5381 59.897 24.5286C59.9008 24.5286 59.9008 24.5268 59.9036 24.5268C59.9074 24.5268 59.9093 24.523 59.9093 24.523C59.9631 24.5164 60 24.505 60 24.4861V22.1912V20.8769C60 20.8429 59.8535 20.8174 59.675 20.8174Z" fill="#FFAF37"/>
<path d="M58.6924 0H39.2281C39.0656 0 38.9324 0.116213 38.9324 0.249433V16.3889C38.9324 16.5259 39.0665 16.6402 39.2281 16.6402H58.6943C58.7676 16.643 58.8394 16.6192 58.8965 16.5731L58.905 16.5656L58.9116 16.5542C58.9364 16.5343 58.9562 16.5089 58.9697 16.4801C58.9831 16.4513 58.9897 16.4197 58.9891 16.3879V6.12434V0.248488C58.9891 0.116213 58.8568 0 58.6943 0" fill="#FFAF37"/>
<path d="M58.1652 0.916992H40.3033C40.1569 0.916992 40.0341 1.02187 40.0341 1.14564V15.951C40.0341 16.0767 40.1569 16.1815 40.3033 16.1815H58.1652C58.2316 16.1842 58.2968 16.1635 58.3494 16.123C58.3494 16.123 58.3494 16.1192 58.3532 16.1135C58.357 16.1135 58.3589 16.1088 58.3608 16.1041C58.3843 16.0862 58.4034 16.063 58.4163 16.0364C58.4293 16.0098 58.4358 15.9806 58.4354 15.951V6.53774V1.14564C58.4364 1.02187 58.3135 0.916992 58.1652 0.916992Z" fill="#FFAF37"/>
<path d="M56.8972 1.47461H40.8872C40.754 1.47461 40.6434 1.56909 40.6434 1.67964V14.9544C40.6434 15.0668 40.754 15.1613 40.8872 15.1613H56.8972C56.9573 15.1637 57.0163 15.1446 57.0635 15.1075L57.0673 15.099C57.0711 15.099 57.073 15.0952 57.0758 15.0914C57.096 15.0747 57.1123 15.0538 57.1236 15.0301C57.1348 15.0065 57.1408 14.9806 57.141 14.9544V6.51429V1.67964C57.141 1.56909 57.0304 1.47461 56.8972 1.47461Z" fill="#FFAF37"/>
<path d="M49.1969 10.3484C51.8727 12.3959 54.4898 13.7867 57.209 14.6294V1.68159C57.209 1.5701 57.0994 1.47656 56.9653 1.47656H42.2751C43.7831 5.10657 46.3813 8.19803 49.1969 10.3484Z" fill="#FFAF37"/>
<path d="M49.2158 12.5193C45.9845 10.2753 42.7523 7.16684 40.7124 3.3252V14.955C40.7124 15.0675 40.8248 15.1619 40.9562 15.1619H54.0259C52.3324 14.4574 50.7202 13.5713 49.2177 12.5193" fill="#FFAF37"/>
<path d="M30.8891 55.5965V51.8654V49.4948C30.8891 49.4428 30.8673 49.3984 30.8409 49.3984H27.7948C27.7683 49.3984 27.7466 49.4428 27.7466 49.4948V55.5965C27.7466 55.622 27.7541 55.6447 27.7579 55.6579L27.7617 55.6617H27.7626C27.7683 55.6768 27.7815 55.6881 27.7948 55.6881H30.8409C30.8673 55.6881 30.8891 55.6475 30.8891 55.5965Z" fill="#FFAF37"/>
<path d="M37.944 53.29H20.5423C20.3987 53.29 20.2787 53.308 20.2787 53.3344V56.2681C20.2787 56.2946 20.3987 56.3125 20.5423 56.3125H37.944C38.0215 56.3125 38.082 56.3087 38.1245 56.3021C38.1245 56.3021 38.1283 56.3021 38.1321 56.2984H38.1358C38.1802 56.2898 38.2076 56.2795 38.2076 56.2681V54.4011V53.3344C38.2076 53.308 38.0877 53.29 37.944 53.29Z" fill="#FFAF37"/>
<path d="M40.0312 54.792H18.6054C18.4278 54.792 18.2804 54.8166 18.2804 54.8506V58.4607C18.2804 58.4948 18.4278 58.5193 18.6054 58.5193H40.0312C40.1275 58.5193 40.2012 58.5127 40.2541 58.5042C40.2579 58.5042 40.2579 58.5004 40.2617 58.5004C40.2617 58.5004 40.2655 58.5004 40.2693 58.4966C40.3222 58.49 40.3562 58.4777 40.3562 58.4598V56.1639V54.8496C40.3562 54.8166 40.2107 54.792 40.0312 54.792Z" fill="#FFAF37"/>
<path d="M39.0514 33.9785H19.5862C19.4237 33.9785 19.2914 34.0928 19.2914 34.227V50.3655C19.2914 50.5025 19.4246 50.6168 19.5862 50.6168H39.0495C39.123 50.6203 39.1954 50.5976 39.2536 50.5526L39.2583 50.5431C39.2583 50.5431 39.264 50.5365 39.2659 50.5318C39.2912 50.5122 39.3116 50.4869 39.3255 50.4581C39.3394 50.4292 39.3465 50.3976 39.3462 50.3655V40.1066V34.227C39.3462 34.0928 39.212 33.9785 39.0495 33.9785" fill="#FFAF37"/>
<path d="M38.5205 34.8848H20.6595C20.5121 34.8848 20.3903 34.9906 20.3903 35.1134V49.9197C20.3903 50.0463 20.5121 50.1484 20.6595 50.1484H38.5214C38.6008 50.1484 38.6631 50.1266 38.7075 50.0917C38.7075 50.0917 38.7075 50.086 38.7113 50.0822C38.7151 50.0822 38.7151 50.0737 38.7198 50.07C38.7428 50.0521 38.7613 50.0291 38.7739 50.0029C38.7865 49.9767 38.7929 49.9479 38.7926 49.9188V40.5046V35.1125C38.7916 34.9915 38.6669 34.8848 38.5205 34.8848Z" fill="#FFAF37"/>
<path d="M37.2525 35.4492H21.2444C21.1112 35.4492 21.0006 35.5456 21.0006 35.6552V48.9299C21.0006 49.0414 21.1112 49.134 21.2444 49.134H37.2525C37.3124 49.1378 37.3717 49.1193 37.4188 49.0821L37.4245 49.0717C37.4292 49.0717 37.4292 49.0698 37.432 49.0632C37.4522 49.0471 37.4686 49.0267 37.4798 49.0035C37.4911 48.9803 37.4971 48.9548 37.4972 48.929V40.4861V35.6533C37.4972 35.5456 37.3829 35.4492 37.2525 35.4492Z" fill="#FFAF37"/>
<path d="M29.556 44.3241C32.2317 46.3715 34.846 47.7632 37.5681 48.6069V35.6591C37.5681 35.5495 37.4575 35.4531 37.3243 35.4531H22.6313C24.1412 39.0822 26.7394 42.1746 29.556 44.3241Z" fill="#FFAF37"/>
<path d="M29.574 46.4978C26.3446 44.2558 23.1114 41.1473 21.0706 37.3057V48.9364C21.0706 49.0479 21.1811 49.1405 21.3143 49.1405H34.3812C32.6871 48.4378 31.0751 47.5516 29.574 46.4978Z" fill="#FFAF37"/>
<path d="M38.5394 8.54985C38.5394 9.41531 37.8346 10.1183 36.9691 10.1183H23.2248C23.0188 10.1183 22.8149 10.0777 22.6246 9.99887C22.4343 9.92005 22.2614 9.80452 22.1157 9.65888C21.9701 9.51324 21.8546 9.34034 21.7758 9.15005C21.6969 8.95977 21.6564 8.75582 21.6564 8.54985C21.6564 8.34388 21.6969 8.13994 21.7758 7.94965C21.8546 7.75936 21.9701 7.58646 22.1157 7.44082C22.2614 7.29518 22.4343 7.17965 22.6246 7.10083C22.8149 7.02201 23.0188 6.98145 23.2248 6.98145H36.9691C37.8346 6.98145 38.5394 7.6825 38.5394 8.54985Z" fill="#FFAF37"/>
<path d="M52.5038 27.2805C53.1936 27.8049 53.3221 28.7922 52.7948 29.481L44.4237 40.3814C44.2999 40.5493 44.1438 40.6908 43.9647 40.7976C43.7855 40.9045 43.5869 40.9746 43.3803 41.0037C43.1738 41.0329 42.9635 41.0206 42.7618 40.9676C42.56 40.9146 42.3709 40.8219 42.2054 40.6949C42.0399 40.5679 41.9014 40.4092 41.798 40.228C41.6945 40.0469 41.6282 39.8469 41.603 39.6399C41.5777 39.4328 41.594 39.2228 41.6508 39.0221C41.7077 38.8214 41.804 38.634 41.9341 38.471L50.3043 27.5687C50.5579 27.239 50.932 27.0234 51.3444 26.9694C51.7569 26.9153 52.1739 27.0272 52.5038 27.2805Z" fill="#FFAF37"/>
<path d="M5.82582 27.2806C5.49625 27.5345 5.28083 27.9088 5.22681 28.3213C5.17279 28.7338 5.28457 29.1509 5.53765 29.4811L13.9097 40.3815C14.1631 40.7114 14.5371 40.9272 14.9495 40.9813C15.3619 41.0354 15.7789 40.9235 16.1088 40.6702C16.4387 40.4169 16.6544 40.0428 16.7086 39.6304C16.7627 39.218 16.6508 38.801 16.3974 38.4711L8.02726 27.5679C7.77305 27.2384 7.39857 27.0231 6.9859 26.9693C6.57324 26.9154 6.15607 27.0274 5.82582 27.2806Z" fill="#FFAF37"/>
</svg>
