<svg width="60" height="60" viewBox="0 0 60 60" fill="none" xmlns="http://www.w3.org/2000/svg">
<path d="M50.4844 14.0125V14.0273L50.4992 14.0281C53.0565 14.1592 55.4661 15.2666 57.2309 17.122C58.9958 18.9774 59.9813 21.4393 59.9844 24V47.9844H50.5156V44.0156H56H56.0156V44V24C56.0138 22.4051 55.3795 20.876 54.2517 19.7483C53.124 18.6205 51.5949 17.9862 50 17.9844H10C8.40509 17.9862 6.87604 18.6205 5.74828 19.7483C4.62053 20.876 3.98617 22.4051 3.98438 24V44V44.0156H4H8.48438V47.9844H0.015625L0.015625 24C0.0186621 21.4393 1.00422 18.9774 2.76907 17.122C4.53391 15.2666 6.94345 14.1592 9.5008 14.0281L9.51562 14.0273V14.0125V0.015625H50.4844V14.0125ZM46.5 14.0156H46.5156V14V4V3.98438H46.5H13.5H13.4844V4V14V14.0156H13.5H46.5Z" fill="#FFAF37" stroke="#FFAF37" stroke-width="0.03125"/>
<path d="M47.5156 23.0156H51.4844V26.9844H47.5156V23.0156Z" fill="#FFAF37" stroke="#FFAF37" stroke-width="0.03125"/>
<path d="M12.5156 35V34.9844H12.5H7.51562V31.0156H12.5H51.4844V34.9844H46.5H46.4844V35V59.9844H12.5156V35ZM42.5 56.0156H42.5156V56V35V34.9844H42.5H16.5H16.4844V35V56V56.0156H16.5H42.5Z" fill="#FFAF37" stroke="#FFAF37" stroke-width="0.03125"/>
</svg>
