<svg width="40" height="55" viewBox="0 0 40 55" fill="none" xmlns="http://www.w3.org/2000/svg">
<path d="M37.2727 7.27273C37.9958 7.27192 38.689 6.98432 39.2003 6.47303C39.7116 5.96174 39.9992 5.26852 40 4.54545V0H36.3636V3.63636H16.3636C15.6406 3.63718 14.9473 3.92477 14.4361 4.43606C13.9248 4.94735 13.6372 5.64057 13.6364 6.36364V10.9091H10.071C7.40094 10.9121 4.84109 11.9741 2.95306 13.8621C1.06502 15.7502 0.00300769 18.31 0 20.9801V39.1558C0 47.6417 6.90375 54.5455 15.3897 54.5455H15.5194C24.0053 54.5455 30.9091 47.6417 30.9091 39.1558V20.9801C30.9061 18.31 29.8441 15.7502 27.956 13.8621C26.068 11.9741 23.5081 10.9121 20.8381 10.9091H17.2727V7.27273H37.2727ZM3.63636 20.9801C3.63829 19.2741 4.31684 17.6386 5.52316 16.4322C6.72947 15.2259 8.36504 14.5474 10.071 14.5455H13.6364V24.5455H3.63636V20.9801ZM27.2727 39.1558C27.2692 42.2719 26.0298 45.2594 23.8264 47.4628C21.623 49.6662 18.6355 50.9056 15.5194 50.9091H15.3897C12.2736 50.9056 9.28609 49.6662 7.08268 47.4628C4.87926 45.2594 3.63985 42.2719 3.63636 39.1558V28.1818H27.2727V39.1558ZM20.8381 14.5455C22.5441 14.5474 24.1796 15.2259 25.3859 16.4322C26.5922 17.6386 27.2708 19.2741 27.2727 20.9801V24.5455H17.2727V14.5455H20.8381Z" fill="#FFAF37"/>
</svg>
