<svg width="40" height="40" viewBox="0 0 40 40" fill="none" xmlns="http://www.w3.org/2000/svg">
<path d="M33.6667 9.34167V0H6.33333V9.34167C4.62577 9.42918 3.0169 10.1686 1.8385 11.4075C0.660096 12.6464 0.00202792 14.2902 0 16V32H5.66667V29.3333H2.66667V16C2.66786 14.9395 3.08967 13.9228 3.83956 13.1729C4.58944 12.423 5.60617 12.0012 6.66667 12H33.3333C34.3938 12.0012 35.4106 12.423 36.1604 13.1729C36.9103 13.9228 37.3321 14.9395 37.3333 16V29.3333H33.6667V32H40V16C39.998 14.2902 39.3399 12.6464 38.1615 11.4075C36.9831 10.1686 35.3742 9.42918 33.6667 9.34167ZM31 9.33333H9V2.66667H31V9.33333Z" fill="#FFAF37"/>
<path d="M31.667 15.333H34.3337V17.9997H31.667V15.333Z" fill="#FFAF37"/>
<path d="M8.33333 20.667H5V23.3337H8.33333V40.0003H31V23.3337H34.3333V20.667H8.33333ZM28.3333 37.3337H11V23.3337H28.3333V37.3337Z" fill="#FFAF37"/>
</svg>
