<svg width="154" height="27" viewBox="0 0 154 27" fill="none" xmlns="http://www.w3.org/2000/svg">
<path d="M13 0L15.9187 8.98278H25.3637L17.7225 14.5344L20.6412 23.5172L13 17.9656L5.35879 23.5172L8.27747 14.5344L0.636266 8.98278H10.0813L13 0Z" fill="#C4C4C4"/>
<path d="M45 0L47.9187 8.98278H57.3637L49.7225 14.5344L52.6412 23.5172L45 17.9656L37.3588 23.5172L40.2775 14.5344L32.6363 8.98278H42.0813L45 0Z" fill="#C4C4C4"/>
<path d="M77 0L79.9187 8.98278H89.3637L81.7225 14.5344L84.6412 23.5172L77 17.9656L69.3588 23.5172L72.2775 14.5344L64.6363 8.98278H74.0813L77 0Z" fill="#C4C4C4"/>
<path d="M109 0L106.081 8.98278H96.6363L104.277 14.5344L101.359 23.5172L109 17.9656L116.641 23.5172L113.723 14.5344L121.364 8.98278H111.919L109 0Z" fill="#C4C4C4"/>
<path d="M141 1L138.081 9.98278H128.636L136.277 15.5344L133.359 24.5172L141 18.9656L148.641 24.5172L145.723 15.5344L153.364 9.98278H143.919L141 1Z" fill="#C4C4C4"/>
</svg>
