<svg width="60" height="60" viewBox="0 0 60 60" fill="none" xmlns="http://www.w3.org/2000/svg">
<circle cx="30" cy="30" r="30" fill="#FFAF37"/>
<path d="M21.4283 22.5714C20.5807 22.5714 19.7521 22.3201 19.0473 21.8492C18.3425 21.3782 17.7932 20.7089 17.4688 19.9258C17.1444 19.1427 17.0596 18.281 17.2249 17.4496C17.3903 16.6183 17.7985 15.8546 18.3978 15.2553C18.9972 14.6559 19.7608 14.2477 20.5922 14.0824C21.4235 13.917 22.2853 14.0019 23.0684 14.3262C23.8515 14.6506 24.5208 15.1999 24.9917 15.9047C25.4627 16.6095 25.714 17.4381 25.714 18.2857C25.714 19.4224 25.2625 20.5124 24.4588 21.3162C23.655 22.1199 22.5649 22.5714 21.4283 22.5714ZM21.4283 16.1429C21.0045 16.1429 20.5902 16.2685 20.2378 16.504C19.8854 16.7395 19.6107 17.0741 19.4486 17.4657C19.2864 17.8572 19.2439 18.2881 19.3266 18.7038C19.4093 19.1194 19.6134 19.5013 19.9131 19.8009C20.2127 20.1006 20.5946 20.3047 21.0102 20.3874C21.4259 20.4701 21.8568 20.4276 22.2483 20.2655C22.6399 20.1033 22.9746 19.8286 23.21 19.4762C23.4455 19.1238 23.5712 18.7095 23.5712 18.2857C23.5712 17.7174 23.3454 17.1724 22.9435 16.7705C22.5417 16.3686 21.9966 16.1429 21.4283 16.1429Z" fill="white"/>
<path d="M38.5709 22.5714C37.7232 22.5714 36.8946 22.3201 36.1899 21.8492C35.4851 21.3782 34.9358 20.7089 34.6114 19.9258C34.287 19.1427 34.2021 18.281 34.3675 17.4496C34.5329 16.6183 34.941 15.8546 35.5404 15.2553C36.1398 14.6559 36.9034 14.2477 37.7348 14.0824C38.5661 13.917 39.4278 14.0019 40.2109 14.3262C40.9941 14.6506 41.6634 15.1999 42.1343 15.9047C42.6052 16.6095 42.8566 17.4381 42.8566 18.2857C42.8566 19.4224 42.4051 20.5124 41.6013 21.3162C40.7976 22.1199 39.7075 22.5714 38.5709 22.5714ZM38.5709 16.1429C38.1471 16.1429 37.7328 16.2685 37.3804 16.504C37.028 16.7395 36.7533 17.0741 36.5911 17.4657C36.4289 17.8572 36.3865 18.2881 36.4692 18.7038C36.5519 19.1194 36.756 19.5013 37.0556 19.8009C37.3553 20.1006 37.7371 20.3047 38.1528 20.3874C38.5685 20.4701 38.9994 20.4276 39.3909 20.2655C39.7825 20.1033 40.1171 19.8286 40.3526 19.4762C40.5881 19.1238 40.7137 18.7095 40.7137 18.2857C40.7137 17.7174 40.488 17.1724 40.0861 16.7705C39.6842 16.3686 39.1392 16.1429 38.5709 16.1429Z" fill="white"/>
<path d="M40.7143 45.0711H36.4286C35.8603 45.0711 35.3152 44.8454 34.9133 44.4435C34.5115 44.0417 34.2857 43.4966 34.2857 42.9283V35.4283H36.4286V42.9283H40.7143V33.2854H42.8571V26.8569C42.8571 26.5727 42.7443 26.3002 42.5433 26.0992C42.3424 25.8983 42.0699 25.7854 41.7857 25.7854H34.9071L30 34.3569L25.0929 25.7854H18.2143C17.9301 25.7854 17.6576 25.8983 17.4567 26.0992C17.2557 26.3002 17.1429 26.5727 17.1429 26.8569V33.2854H19.2857V42.9283H23.5714V35.4283H25.7143V42.9283C25.7143 43.4966 25.4885 44.0417 25.0867 44.4435C24.6848 44.8454 24.1397 45.0711 23.5714 45.0711H19.2857C18.7174 45.0711 18.1723 44.8454 17.7705 44.4435C17.3686 44.0417 17.1429 43.4966 17.1429 42.9283V35.4283C16.5745 35.4283 16.0295 35.2025 15.6276 34.8007C15.2258 34.3988 15 33.8538 15 33.2854V26.8569C15 26.0044 15.3386 25.1868 15.9414 24.584C16.5442 23.9812 17.3618 23.6426 18.2143 23.6426H26.3357L30 30.0711L33.6643 23.6426H41.7857C42.6382 23.6426 43.4558 23.9812 44.0586 24.584C44.6614 25.1868 45 26.0044 45 26.8569V33.2854C45 33.8538 44.7742 34.3988 44.3724 34.8007C43.9705 35.2025 43.4255 35.4283 42.8571 35.4283V42.9283C42.8571 43.4966 42.6314 44.0417 42.2295 44.4435C41.8277 44.8454 41.2826 45.0711 40.7143 45.0711Z" fill="white"/>
</svg>
