<svg width="60" height="60" viewBox="0 0 60 60" fill="none" xmlns="http://www.w3.org/2000/svg">
<circle cx="30" cy="30" r="30" fill="#FFAF37"/>
<path d="M22 40H26V38H28C29.1 38 30 37.1 30 36V30C30 28.9 29.1 28 28 28H22V26H30V22H26V20H22V22H20C18.9 22 18 22.9 18 24V30C18 31.1 18.9 32 20 32H26V34H18V38H22V40ZM46 14H14C11.78 14 10.02 15.78 10.02 18L10 42C10 44.22 11.78 46 14 46H46C48.22 46 50 44.22 50 42V18C50 15.78 48.22 14 46 14ZM46 42H14V18H46V42ZM34 26L38 22L42 26H34ZM42 34.5L38 38.5L34 34.5" fill="white"/>
</svg>
