<svg width="60" height="60" viewBox="0 0 60 60" fill="none" xmlns="http://www.w3.org/2000/svg">
<circle cx="30" cy="30" r="30" fill="#FFAF37"/>
<path d="M28.385 23.635C28.6197 23.4003 28.7516 23.0819 28.7516 22.75C28.7516 22.4181 28.6197 22.0997 28.385 21.865C28.1503 21.6303 27.8319 21.4984 27.5 21.4984C27.1681 21.4984 26.8497 21.6303 26.615 21.865L23.085 25.395L22.0925 24.49C21.8459 24.2792 21.527 24.1726 21.2032 24.1926C20.8794 24.2126 20.5761 24.3577 20.3573 24.5972C20.1386 24.8368 20.0215 25.152 20.0309 25.4763C20.0402 25.8005 20.1753 26.1085 20.4075 26.335L22.2825 28.0475C22.5201 28.2638 22.8318 28.3803 23.153 28.3729C23.4742 28.3654 23.7802 28.2346 24.0075 28.0075L28.3825 23.6325L28.385 23.635ZM28.385 34.365C28.5014 34.4811 28.5938 34.6191 28.6568 34.7709C28.7198 34.9228 28.7522 35.0856 28.7522 35.25C28.7522 35.4144 28.7198 35.5772 28.6568 35.7291C28.5938 35.8809 28.5014 36.0189 28.385 36.135L24.01 40.51C23.7823 40.7375 23.4756 40.8683 23.1538 40.8753C22.832 40.8823 22.5199 40.7649 22.2825 40.5475L20.4075 38.835C20.1753 38.6085 20.0402 38.3005 20.0309 37.9763C20.0215 37.652 20.1386 37.3368 20.3573 37.0972C20.5761 36.8577 20.8794 36.7126 21.2032 36.6926C21.527 36.6726 21.8459 36.7792 22.0925 36.99L23.085 37.8975L26.615 34.365C26.7311 34.2486 26.8691 34.1562 27.0209 34.0932C27.1728 34.0302 27.3356 33.9978 27.5 33.9978C27.6644 33.9978 27.8272 34.0302 27.9791 34.0932C28.1309 34.1562 28.2689 34.2486 28.385 34.365ZM32.5 36.5C32.1685 36.5 31.8505 36.6317 31.6161 36.8661C31.3817 37.1005 31.25 37.4185 31.25 37.75C31.25 38.0815 31.3817 38.3995 31.6161 38.6339C31.8505 38.8683 32.1685 39 32.5 39H38.75C39.0815 39 39.3995 38.8683 39.6339 38.6339C39.8683 38.3995 40 38.0815 40 37.75C40 37.4185 39.8683 37.1005 39.6339 36.8661C39.3995 36.6317 39.0815 36.5 38.75 36.5H32.5ZM31.25 25.25C31.25 24.9185 31.3817 24.6005 31.6161 24.3661C31.8505 24.1317 32.1685 24 32.5 24H38.75C39.0815 24 39.3995 24.1317 39.6339 24.3661C39.8683 24.6005 40 24.9185 40 25.25C40 25.5815 39.8683 25.8995 39.6339 26.1339C39.3995 26.3683 39.0815 26.5 38.75 26.5H32.5C32.1685 26.5 31.8505 26.3683 31.6161 26.1339C31.3817 25.8995 31.25 25.5815 31.25 25.25ZM26.25 9C25.4742 8.99959 24.7173 9.23982 24.0838 9.68757C23.4502 10.1353 22.9711 10.7686 22.7125 11.5H18.75C17.7554 11.5 16.8016 11.8951 16.0983 12.5984C15.3951 13.3016 15 14.2554 15 15.25V45.25C15 46.2446 15.3951 47.1984 16.0983 47.9016C16.8016 48.6049 17.7554 49 18.75 49H41.25C42.2446 49 43.1984 48.6049 43.9017 47.9016C44.6049 47.1984 45 46.2446 45 45.25V15.25C45 14.2554 44.6049 13.3016 43.9017 12.5984C43.1984 11.8951 42.2446 11.5 41.25 11.5H37.2875C37.0289 10.7686 36.5498 10.1353 35.9162 9.68757C35.2827 9.23982 34.5258 8.99959 33.75 9H26.25ZM25 12.75C25 12.4185 25.1317 12.1005 25.3661 11.8661C25.6005 11.6317 25.9185 11.5 26.25 11.5H33.75C34.0815 11.5 34.3995 11.6317 34.6339 11.8661C34.8683 12.1005 35 12.4185 35 12.75C35 13.0815 34.8683 13.3995 34.6339 13.6339C34.3995 13.8683 34.0815 14 33.75 14H26.25C25.9185 14 25.6005 13.8683 25.3661 13.6339C25.1317 13.3995 25 13.0815 25 12.75ZM18.75 14H22.7125C22.9711 14.7314 23.4502 15.3647 24.0838 15.8124C24.7173 16.2602 25.4742 16.5004 26.25 16.5H33.75C34.5258 16.5004 35.2827 16.2602 35.9162 15.8124C36.5498 15.3647 37.0289 14.7314 37.2875 14H41.25C41.5815 14 41.8995 14.1317 42.1339 14.3661C42.3683 14.6005 42.5 14.9185 42.5 15.25V45.25C42.5 45.5815 42.3683 45.8995 42.1339 46.1339C41.8995 46.3683 41.5815 46.5 41.25 46.5H18.75C18.4185 46.5 18.1005 46.3683 17.8661 46.1339C17.6317 45.8995 17.5 45.5815 17.5 45.25V15.25C17.5 14.9185 17.6317 14.6005 17.8661 14.3661C18.1005 14.1317 18.4185 14 18.75 14Z" fill="white"/>
</svg>
