<svg width="31" height="18" viewBox="0 0 31 18" fill="none" xmlns="http://www.w3.org/2000/svg">
<path fill-rule="evenodd" clip-rule="evenodd" d="M29.7425 1.18497C29.95 0.502489 29.7425 0 28.7488 0H25.4676C24.6327 0 24.2477 0.433741 24.0389 0.912481C24.0389 0.912481 22.3702 4.9074 20.0065 7.50234C19.2415 8.25483 18.894 8.49357 18.4765 8.49357C18.2678 8.49357 17.954 8.25483 17.954 7.57109V1.18497C17.954 0.364992 17.7241 0 17.0291 0H11.8692C11.3479 0 11.0342 0.379992 11.0342 0.741234C11.0342 1.51747 12.2167 1.69746 12.3379 3.88242V8.62982C12.3379 9.67105 12.1467 9.85979 11.7292 9.85979C10.6167 9.85979 7.91051 5.84613 6.30429 1.25372C5.99305 0.359992 5.67805 0 4.83932 0H1.55564C0.61816 0 0.430664 0.433741 0.430664 0.912481C0.430664 1.76496 1.54314 5.99987 5.61181 11.601C8.32425 15.4259 12.1429 17.4996 15.6216 17.4996C17.7078 17.4996 17.9653 17.0396 17.9653 16.2459V13.3547C17.9653 12.4335 18.1628 12.2497 18.824 12.2497C19.3115 12.2497 20.1453 12.4897 22.0927 14.3334C24.3177 16.5197 24.6839 17.4996 25.9364 17.4996H29.2176C30.155 17.4996 30.625 17.0396 30.355 16.1297C30.0575 15.2247 28.9951 13.911 27.5863 12.3522C26.8214 11.4648 25.6739 10.5085 25.3251 10.0298C24.8389 9.41605 24.9776 9.14231 25.3251 8.59607C25.3251 8.59607 29.3251 3.06369 29.7413 1.18497H29.7425Z" fill="#FFAF37"/>
</svg>
