<svg width="31" height="30" viewBox="0 0 31 30" fill="none" xmlns="http://www.w3.org/2000/svg">
<path d="M22.1777 17.9429C21.8127 17.7554 19.9947 16.8648 19.6565 16.7442C19.3184 16.617 19.0706 16.5567 18.8262 16.9317C18.5784 17.3034 17.8753 18.1304 17.6543 18.3815C17.44 18.6293 17.2224 18.6594 16.8574 18.4752C14.6878 17.3904 13.2649 16.54 11.8352 14.0858C11.4568 13.4329 12.2135 13.4798 12.92 12.0702C13.0405 11.8224 12.9803 11.6115 12.8865 11.424C12.7928 11.2365 12.0562 9.42179 11.7481 8.68184C11.4502 7.96198 11.1421 8.06243 10.9178 8.04904C10.7035 8.03564 10.4591 8.03564 10.2113 8.03564C9.96356 8.03564 9.56513 8.12939 9.22697 8.49434C8.8888 8.86599 7.93457 9.75995 7.93457 11.5747C7.93457 13.3894 9.2571 15.1472 9.4379 15.3949C9.6254 15.6427 12.0394 19.3659 15.7459 20.9696C18.0896 21.9808 19.007 22.0678 20.1788 21.8937C20.892 21.7866 22.3618 21.0031 22.6665 20.1359C22.9712 19.2721 22.9712 18.5322 22.8808 18.3781C22.7904 18.2141 22.5426 18.1203 22.1777 17.9429Z" fill="#FFAF37"/>
<path d="M29.2653 9.18738C28.5086 7.38942 27.4238 5.7756 26.041 4.38945C24.6582 3.00666 23.0444 1.9185 21.2431 1.16516C19.4016 0.391736 17.4463 0 15.4307 0H15.3637C13.3347 0.0100445 11.3693 0.411825 9.52114 1.20199C7.73657 1.96538 6.13614 3.05018 4.76674 4.43298C3.39733 5.81578 2.32257 7.4229 1.57928 9.21417C0.809198 11.0691 0.420809 13.0411 0.430854 15.0701C0.440899 17.3938 0.996695 19.7006 2.03798 21.7631V26.8523C2.03798 27.7028 2.7277 28.3925 3.57814 28.3925H8.67071C10.7332 29.4338 13.0401 29.9896 15.3637 29.9996H15.434C17.4396 29.9996 19.3849 29.6112 21.2163 28.8512C23.0076 28.1046 24.6181 27.0331 25.9975 25.6637C27.3803 24.2943 28.4684 22.6939 29.2285 20.9093C30.0187 19.0611 30.4204 17.0958 30.4305 15.0668C30.4405 13.0277 30.0454 11.049 29.2653 9.18738ZM24.2062 23.8524C21.8592 26.176 18.7454 27.455 15.4307 27.455H15.3737C13.3548 27.445 11.3492 26.9427 9.57806 25.9986L9.29681 25.8479H4.58259V21.1337L4.43192 20.8524C3.48774 19.0812 2.98551 17.0757 2.97547 15.0567C2.96207 11.7186 4.23773 8.58471 6.5781 6.22425C8.91512 3.86379 12.039 2.558 15.3771 2.54461H15.434C17.1081 2.54461 18.732 2.86938 20.2621 3.51223C21.7554 4.13834 23.0946 5.039 24.2464 6.19077C25.3948 7.33919 26.2988 8.68181 26.9249 10.1751C27.5745 11.722 27.8993 13.3626 27.8926 15.0567C27.8725 18.3915 26.5633 21.5154 24.2062 23.8524Z" fill="#FFAF37"/>
</svg>
